<svg width="724" height="771" viewBox="0 0 724 771" fill="none" xmlns="http://www.w3.org/2000/svg">
<g filter="url(#filter0_dii_5_1143)">
<path d="M127.717 151.6C127.717 120.341 153.057 95 184.316 95H460.712C491.971 95 517.312 120.341 517.312 151.6V269.28C517.312 270.713 518.473 271.874 519.906 271.874C521.339 271.874 522.5 273.036 522.5 274.468V343.803C522.5 345.236 521.339 346.397 519.906 346.397C518.473 346.397 517.312 347.559 517.312 348.991V838.344C517.312 869.603 491.971 894.943 460.712 894.943H184.316C153.057 894.943 127.717 869.603 127.717 838.344V382.244C127.717 380.941 126.661 379.885 125.358 379.885C124.056 379.885 123 378.83 123 377.527V319.041C123 317.738 124.056 316.682 125.358 316.682C126.661 316.682 127.717 315.627 127.717 314.324V307.249C127.717 305.947 126.661 304.891 125.358 304.891C124.056 304.891 123 303.835 123 302.532V242.159C123 240.857 124.056 239.801 125.358 239.801C126.661 239.801 127.717 238.745 127.717 237.443V151.6Z" fill="white"/>
<path d="M128.188 151.6C128.188 120.601 153.318 95.4717 184.316 95.4717H460.712C491.711 95.4717 516.84 120.601 516.84 151.6V269.28C516.84 270.973 518.213 272.346 519.906 272.346C521.078 272.346 522.028 273.296 522.028 274.468V343.803C522.028 344.975 521.078 345.926 519.906 345.926C518.213 345.926 516.84 347.298 516.84 348.991V838.344C516.84 869.342 491.711 894.472 460.712 894.472H184.316C153.318 894.472 128.188 869.342 128.188 838.344V382.244C128.188 380.681 126.921 379.414 125.358 379.414C124.316 379.414 123.472 378.569 123.472 377.527V319.041C123.472 317.999 124.316 317.154 125.358 317.154C126.921 317.154 128.188 315.887 128.188 314.324V307.249C128.188 305.686 126.921 304.419 125.358 304.419C124.316 304.419 123.472 303.574 123.472 302.532V242.159C123.472 241.117 124.316 240.273 125.358 240.273C126.921 240.273 128.188 239.006 128.188 237.443V151.6Z" stroke="#EEEEEE" stroke-width="0.943329"/>
</g>
<path d="M180.521 124.715H222.053V128.809C222.053 139.155 230.441 147.543 240.788 147.543H405.154C415.5 147.543 423.888 139.155 423.888 128.809V124.715H464.508C480.385 124.715 493.257 137.586 493.257 153.463V836.48C493.257 852.357 480.386 865.228 464.508 865.228H180.521C164.643 865.228 151.772 852.357 151.772 836.48V153.463C151.772 137.586 164.643 124.715 180.521 124.715Z" fill="#FEFEFE" stroke="#E6E6E6" stroke-width="0.943329"/>
<rect opacity="0.4" x="313.196" y="126.13" width="81.1263" height="7.54664" rx="3.77332" fill="#333333"/>
<rect opacity="0.5" x="420.529" y="121.413" width="16.9799" height="16.9799" rx="8.48996" fill="#313131"/>
<rect opacity="0.5" x="424.302" y="125.187" width="9.43329" height="9.43329" rx="4.71665" fill="white"/>
<rect opacity="0.5" x="254.916" y="126.13" width="7.54664" height="7.54664" rx="3.77332" fill="#333333"/>
<defs>
<filter id="filter0_dii_5_1143" x="0.367165" y="0.667053" width="776.832" height="1177.28" filterUnits="userSpaceOnUse" color-interpolation-filters="sRGB">
<feFlood flood-opacity="0" result="BackgroundImageFix"/>
<feColorMatrix in="SourceAlpha" type="matrix" values="0 0 0 0 0 0 0 0 0 0 0 0 0 0 0 0 0 0 127 0" result="hardAlpha"/>
<feOffset dx="66.0331" dy="94.3329"/>
<feGaussianBlur stdDeviation="94.3329"/>
<feColorMatrix type="matrix" values="0 0 0 0 0 0 0 0 0 0 0 0 0 0 0 0 0 0 0.17 0"/>
<feBlend mode="normal" in2="BackgroundImageFix" result="effect1_dropShadow_5_1143"/>
<feBlend mode="normal" in="SourceGraphic" in2="effect1_dropShadow_5_1143" result="shape"/>
<feColorMatrix in="SourceAlpha" type="matrix" values="0 0 0 0 0 0 0 0 0 0 0 0 0 0 0 0 0 0 127 0" result="hardAlpha"/>
<feOffset dx="9.43329" dy="18.8666"/>
<feGaussianBlur stdDeviation="14.1499"/>
<feComposite in2="hardAlpha" operator="arithmetic" k2="-1" k3="1"/>
<feColorMatrix type="matrix" values="0 0 0 0 0 0 0 0 0 0 0 0 0 0 0 0 0 0 0.1 0"/>
<feBlend mode="normal" in2="shape" result="effect2_innerShadow_5_1143"/>
<feColorMatrix in="SourceAlpha" type="matrix" values="0 0 0 0 0 0 0 0 0 0 0 0 0 0 0 0 0 0 127 0" result="hardAlpha"/>
<feOffset dx="-9.43329" dy="-18.8666"/>
<feGaussianBlur stdDeviation="14.1499"/>
<feComposite in2="hardAlpha" operator="arithmetic" k2="-1" k3="1"/>
<feColorMatrix type="matrix" values="0 0 0 0 0 0 0 0 0 0 0 0 0 0 0 0 0 0 0.1 0"/>
<feBlend mode="normal" in2="effect2_innerShadow_5_1143" result="effect3_innerShadow_5_1143"/>
</filter>
</defs>
</svg>
